<?xml version="1.0" standalone="no"?>
<!DOCTYPE svg PUBLIC "-//W3C//DTD SVG 20010904//EN"
 "http://www.w3.org/TR/2001/REC-SVG-20010904/DTD/svg10.dtd">
<svg version="1.0" xmlns="http://www.w3.org/2000/svg"
 width="100.000000pt" height="100.000000pt" viewBox="0 0 100.000000 100.000000"
 preserveAspectRatio="xMidYMid meet">
<metadata>
Created by potrace 1.16, written by Peter Selinger 2001-2019
</metadata>
<g transform="translate(0.000000,100.000000) scale(0.100000,-0.100000)"
fill="#000000" stroke="none">
<path d="M312 879 c-50 -25 -98 -80 -113 -129 -6 -21 -9 -125 -7 -266 l3 -231
28 -41 c40 -61 97 -95 168 -100 68 -5 118 3 145 22 19 14 19 15 -4 39 -22 23
-24 24 -66 10 -84 -28 -181 25 -205 112 -15 53 -14 382 0 426 28 84 119 133
203 109 88 -24 126 -93 126 -229 l0 -90 31 11 31 11 -4 112 c-3 102 -5 115
-31 153 -45 69 -97 96 -186 100 -62 2 -84 -1 -119 -19z"/>
</g>
</svg>
